<?xml version="1.0" encoding="UTF-8"?>
<svg xmlns="http://www.w3.org/2000/svg" xmlns:xlink="http://www.w3.org/1999/xlink" width="1012.5pt" height="487.499991pt" viewBox="0 0 1012.5 487.499991" version="1.2">
<defs>
<clipPath id="clip1">
  <path d="M 262.628906 0 L 749.871094 0 L 749.871094 487 L 262.628906 487 Z M 262.628906 0 "/>
</clipPath>
</defs>
<g id="surface1">
<g clip-path="url(#clip1)" clip-rule="nonzero">
<path style=" stroke:none;fill-rule:nonzero;fill:rgb(42.749023%,58.81958%,100%);fill-opacity:1;" d="M 688.964844 0 L 323.535156 0 C 289.898438 0 262.628906 27.269531 262.628906 60.90625 L 262.628906 426.335938 C 262.628906 459.96875 289.898438 487.242188 323.535156 487.242188 L 688.964844 487.242188 C 722.601562 487.242188 749.871094 459.96875 749.871094 426.335938 L 749.871094 60.90625 C 749.871094 27.269531 722.601562 0 688.964844 0 Z M 412.402344 233.519531 C 412.5 232.550781 412.707031 231.621094 412.835938 230.671875 C 413.15625 228.308594 413.507812 225.964844 414 223.667969 C 414.222656 222.632812 414.527344 221.632812 414.785156 220.613281 C 415.332031 218.4375 415.90625 216.265625 416.597656 214.148438 C 416.933594 213.144531 417.320312 212.179688 417.679688 211.1875 C 418.441406 209.117188 419.230469 207.070312 420.128906 205.066406 C 420.28125 204.726562 420.390625 204.367188 420.550781 204.023438 L 420.632812 204.023438 C 435.617188 171.691406 468.269531 149.210938 506.25 149.210938 C 544.222656 149.210938 576.878906 171.691406 591.867188 204.023438 L 591.949219 204.023438 C 592.109375 204.367188 592.21875 204.726562 592.378906 205.066406 C 593.269531 207.070312 594.066406 209.117188 594.820312 211.1875 C 595.1875 212.179688 595.574219 213.144531 595.902344 214.148438 C 596.601562 216.265625 597.167969 218.429688 597.714844 220.613281 C 597.972656 221.632812 598.277344 222.632812 598.507812 223.667969 C 598.992188 225.964844 599.335938 228.308594 599.664062 230.671875 C 599.800781 231.621094 599.992188 232.550781 600.105469 233.519531 C 600.449219 236.835938 600.652344 240.203125 600.652344 243.621094 C 600.652344 295.769531 558.378906 338.023438 506.25 338.023438 C 454.113281 338.023438 411.847656 295.746094 411.847656 243.621094 C 411.847656 240.203125 412.050781 236.835938 412.402344 233.519531 Z M 695.054688 408.0625 C 695.054688 421.523438 684.144531 432.425781 670.695312 432.425781 L 341.804688 432.425781 C 328.355469 432.425781 317.445312 421.515625 317.445312 408.0625 L 317.445312 204.03125 L 362.355469 204.03125 C 358.890625 216.640625 357.03125 229.917969 357.03125 243.621094 C 357.03125 326.03125 423.835938 392.839844 506.25 392.839844 C 588.664062 392.839844 655.46875 326.03125 655.46875 243.621094 C 655.46875 229.917969 653.609375 216.640625 650.144531 204.03125 L 695.054688 204.03125 Z M 695.054688 127.902344 C 695.054688 141.351562 684.144531 152.261719 670.695312 152.261719 L 621.96875 152.261719 C 608.515625 152.261719 597.609375 141.351562 597.609375 127.902344 L 597.609375 79.175781 C 597.609375 65.722656 608.523438 54.816406 621.96875 54.816406 L 670.695312 54.816406 C 684.152344 54.816406 695.054688 65.714844 695.054688 79.175781 Z M 695.054688 127.902344 "/>
</g>
</g>
</svg>
