<?xml version="1.0" encoding="UTF-8"?>
<svg xmlns="http://www.w3.org/2000/svg" xmlns:xlink="http://www.w3.org/1999/xlink" width="1012.5pt" height="487.499991pt" viewBox="0 0 1012.5 487.499991" version="1.2">
<defs>
<clipPath id="clip1">
  <path d="M 262.628906 45 L 749.871094 45 L 749.871094 442 L 262.628906 442 Z M 262.628906 45 "/>
</clipPath>
</defs>
<g id="surface1">
<g clip-path="url(#clip1)" clip-rule="nonzero">
<path style=" stroke:none;fill-rule:nonzero;fill:rgb(42.749023%,58.81958%,100%);fill-opacity:1;" d="M 693.289062 107.945312 L 693.289062 107.703125 C 697.539062 106.042969 700.886719 102.527344 704.261719 99.921875 C 719.488281 88.191406 729.390625 72.742188 736.691406 52.996094 C 732.558594 55.265625 728.410156 57.53125 724.261719 59.800781 C 711.460938 66.296875 689.75 75.628906 673.039062 77.058594 C 653.351562 59.125 632.75 45.015625 594.03125 45.695312 C 589.964844 46.179688 585.898438 46.667969 581.832031 47.15625 C 573.9375 48.882812 566.417969 51.023438 559.632812 53.960938 C 531.28125 66.265625 511.953125 89.21875 503.058594 121.0625 C 499.519531 133.730469 498.082031 154.90625 502.574219 167.992188 C 486.578125 167.96875 471.09375 165.449219 457.699219 162.152344 C 404.917969 149.171875 372.046875 131.632812 335.546875 103.082031 C 324.828125 94.699219 314.316406 85.199219 305.796875 74.640625 C 303.046875 71.234375 298.714844 68.25 296.773438 64.179688 C 296.605469 64.101562 296.445312 64.019531 296.289062 63.933594 C 292.046875 71.792969 288.066406 80.304688 285.558594 89.949219 C 275.664062 127.96875 291.308594 159.898438 307.996094 180.636719 C 313.050781 186.925781 321.25 190.824219 326.28125 196.683594 L 326.769531 196.683594 C 322.988281 198.085938 316.410156 196.144531 313.113281 195.46875 C 305.316406 193.859375 298.671875 192.382812 292.136719 189.636719 C 288.726562 188.015625 285.308594 186.390625 281.898438 184.769531 C 281.738281 226.773438 302.957031 254.074219 328.960938 270.351562 C 337.445312 275.65625 349.304688 282.804688 361.636719 283.476562 C 355.039062 289.046875 326.808594 286.488281 317.011719 285.425781 C 329.257812 316.957031 348.078125 337.953125 380.414062 349.359375 C 388.757812 352.304688 398.933594 354.910156 410.164062 354.710938 C 404.203125 361.792969 391.480469 367.5625 383.09375 372.457031 C 365.796875 382.574219 345.710938 389.136719 323.101562 394.101562 C 314.035156 396.082031 304.394531 395.675781 294.566406 397.253906 C 283.703125 399.003906 272.335938 396.332031 262.621094 396.035156 C 265.546875 397.816406 268.476562 399.613281 271.398438 401.386719 C 280.316406 406.816406 289.625 411.574219 299.691406 415.972656 C 317.800781 423.898438 337.101562 429.875 358.464844 435.183594 C 401.539062 445.871094 462.308594 441.066406 499.910156 429.351562 C 604.621094 396.714844 670.761719 320.535156 695.734375 208.339844 C 700.027344 189.042969 700.652344 167.125 700.371094 144.15625 C 705.578125 140.019531 710.777344 135.886719 715.976562 131.753906 C 728.867188 121.429688 740.949219 107.039062 749.871094 92.851562 L 749.871094 92.605469 C 732.878906 97.933594 714.988281 107.71875 693.289062 107.945312 Z M 693.289062 107.945312 "/>
</g>
</g>
</svg>
